<svg xmlns="http://www.w3.org/2000/svg" xmlns:xlink="http://www.w3.org/1999/xlink" width="500" zoomAndPan="magnify" viewBox="0 0 375 119.999999" height="160" preserveAspectRatio="xMidYMid meet" version="1.0"><defs><g/></defs><g fill="#000000" fill-opacity="1"><g transform="translate(8.608053, 104.890667)"><g><path d="M 38.296875 -49.050781 C 39.683594 -51.550781 40.308594 -52.796875 42.113281 -55.503906 L 40.585938 -55.503906 C 39.40625 -52.796875 38.785156 -51.6875 37.328125 -48.980469 L 24.839844 -25.878906 L 12.28125 -48.980469 C 10.894531 -51.550781 10.058594 -52.796875 9.226562 -55.503906 L 3.46875 -55.503906 C 5.480469 -52.867188 6.382812 -51.617188 7.769531 -48.980469 L 21.089844 -24.351562 L 21.089844 -13.042969 C 21.089844 -8.742188 21.089844 -6.175781 20.675781 0 L 25.460938 0 C 25.117188 -6.175781 25.046875 -8.742188 25.046875 -13.042969 L 25.046875 -24.351562 Z M 38.296875 -49.050781 "/></g></g></g><g fill="#000000" fill-opacity="1"><g transform="translate(48.637837, 104.890667)"><g><path d="M 37.535156 -6.9375 L 23.660156 -55.503906 L 18.800781 -55.503906 C 19.21875 -54.324219 19.289062 -53.628906 19.011719 -52.453125 L 5.828125 -6.660156 C 5.066406 -4.09375 4.855469 -2.84375 3.46875 0 L 5.132812 0 C 5.34375 -2.84375 5.964844 -4.09375 6.730469 -6.730469 L 10.683594 -20.46875 L 29.488281 -20.46875 L 33.371094 -6.9375 C 34.136719 -4.09375 34.550781 -2.914062 34.757812 0 L 40.171875 0 C 38.851562 -2.707031 38.296875 -4.023438 37.535156 -6.9375 Z M 10.894531 -21.300781 L 20.121094 -53.214844 L 29.277344 -21.300781 Z M 10.894531 -21.300781 "/></g></g></g><g fill="#000000" fill-opacity="1"><g transform="translate(86.725064, 104.890667)"><g><path d="M 32.746094 -13.390625 C 29.695312 -21.507812 24.976562 -24.699219 19.496094 -25.808594 C 29.277344 -26.574219 37.050781 -30.179688 37.050781 -40.585938 C 37.050781 -52.519531 26.917969 -55.503906 15.125 -55.503906 L 4.855469 -55.503906 C 5.273438 -49.328125 5.273438 -46.761719 5.273438 -42.53125 L 5.273438 -13.042969 C 5.273438 -8.742188 5.273438 -6.175781 4.855469 0 L 9.644531 0 C 9.296875 -6.175781 9.226562 -8.742188 9.226562 -13.042969 L 9.226562 -25.671875 L 12.28125 -25.671875 C 19.773438 -25.671875 24.976562 -23.519531 28.863281 -12.835938 C 32.191406 -3.675781 35.871094 0 46.207031 0 L 46.207031 -0.832031 C 39.546875 -0.832031 36.425781 -3.539062 32.746094 -13.390625 Z M 9.226562 -26.574219 L 9.226562 -54.671875 L 15.125 -54.671875 C 23.9375 -54.671875 32.816406 -51.894531 32.816406 -40.585938 C 32.816406 -29.347656 23.9375 -26.574219 15.125 -26.574219 Z M 9.226562 -26.574219 "/></g></g></g><g fill="#000000" fill-opacity="1"><g transform="translate(130.015569, 104.890667)"><g><path d="M 4.855469 0 L 17.136719 0 C 34.136719 0 44.195312 -10.335938 44.195312 -27.753906 C 44.195312 -46 33.789062 -55.503906 17.136719 -55.503906 L 4.855469 -55.503906 C 5.273438 -49.328125 5.273438 -46.761719 5.273438 -42.53125 L 5.273438 -13.042969 C 5.273438 -8.742188 5.273438 -6.175781 4.855469 0 Z M 17.066406 -0.902344 L 9.226562 -0.902344 L 9.226562 -54.671875 L 17.066406 -54.671875 C 30.25 -54.671875 39.753906 -45.789062 39.753906 -27.753906 C 39.753906 -10.40625 30.25 -0.902344 17.066406 -0.902344 Z M 17.066406 -0.902344 "/></g></g></g><g fill="#000000" fill-opacity="1"><g transform="translate(172.820437, 104.890667)"><g/></g></g><g fill="#000000" fill-opacity="1"><g transform="translate(186.903182, 104.890667)"><g><path d="M 2.773438 -16.859375 C 6.660156 -3.121094 14.5 1.386719 23.589844 1.386719 C 31.566406 1.386719 38.296875 -2.984375 38.296875 -12.003906 C 38.296875 -20.050781 32.332031 -24.214844 21.367188 -32.957031 C 13.527344 -39.0625 8.878906 -41.699219 8.878906 -47.734375 C 8.878906 -52.730469 12.628906 -56.058594 18.871094 -56.058594 C 27.683594 -56.058594 31.359375 -49.398438 32.191406 -43.15625 L 36.214844 -44.402344 C 32.261719 -52.453125 26.78125 -56.890625 19.011719 -56.890625 C 11.449219 -56.890625 6.382812 -53.074219 6.382812 -46.414062 C 6.382812 -39.894531 10.335938 -37.117188 19.425781 -29.902344 C 29.347656 -21.992188 35.800781 -17.621094 35.800781 -11.101562 C 35.800781 -3.121094 30.457031 0.554688 23.726562 0.554688 C 14.640625 0.554688 7.5625 -7.144531 6.800781 -18.386719 Z M 2.773438 -16.859375 "/></g></g></g><g fill="#000000" fill-opacity="1"><g transform="translate(222.423447, 104.890667)"><g><path d="M 37.535156 -6.9375 L 23.660156 -55.503906 L 18.800781 -55.503906 C 19.21875 -54.324219 19.289062 -53.628906 19.011719 -52.453125 L 5.828125 -6.660156 C 5.066406 -4.09375 4.855469 -2.84375 3.46875 0 L 5.132812 0 C 5.34375 -2.84375 5.964844 -4.09375 6.730469 -6.730469 L 10.683594 -20.46875 L 29.488281 -20.46875 L 33.371094 -6.9375 C 34.136719 -4.09375 34.550781 -2.914062 34.757812 0 L 40.171875 0 C 38.851562 -2.707031 38.296875 -4.023438 37.535156 -6.9375 Z M 10.894531 -21.300781 L 20.121094 -53.214844 L 29.277344 -21.300781 Z M 10.894531 -21.300781 "/></g></g></g><g fill="#000000" fill-opacity="1"><g transform="translate(260.510664, 104.890667)"><g><path d="M 4.996094 -55.503906 C 5.410156 -49.328125 5.410156 -46.761719 5.410156 -42.53125 L 5.410156 -13.042969 C 5.410156 -8.742188 5.34375 -6.175781 4.855469 0 L 32.679688 0 L 34.34375 -2.84375 C 27.472656 -1.179688 22.339844 -0.902344 15.679688 -0.902344 L 9.367188 -0.902344 L 9.367188 -42.53125 C 9.367188 -46.761719 9.4375 -49.328125 9.78125 -55.503906 Z M 4.996094 -55.503906 "/></g></g></g><g fill="#000000" fill-opacity="1"><g transform="translate(292.076435, 104.890667)"><g><path d="M 4.855469 -55.503906 C 5.34375 -49.328125 5.410156 -46.761719 5.410156 -42.53125 L 5.410156 -13.042969 C 5.410156 -8.742188 5.34375 -6.175781 4.855469 0 L 35.105469 0 L 36.703125 -2.84375 C 29.902344 -1.179688 24.769531 -0.902344 18.109375 -0.902344 L 9.367188 -0.902344 L 9.367188 -29.140625 L 14.292969 -29.140625 C 17.96875 -29.140625 21.714844 -29.140625 28.167969 -28.445312 L 28.167969 -30.664062 C 21.714844 -29.972656 17.96875 -29.972656 14.292969 -29.972656 L 9.367188 -29.972656 L 9.367188 -54.671875 L 15.886719 -54.671875 C 18.59375 -54.671875 26.085938 -54.324219 32.121094 -52.660156 L 34.621094 -55.503906 Z M 4.855469 -55.503906 "/></g></g></g><g fill="#000000" fill-opacity="1"><g transform="translate(325.307251, 104.890667)"><g><path d="M 2.773438 -16.859375 C 6.660156 -3.121094 14.5 1.386719 23.589844 1.386719 C 31.566406 1.386719 38.296875 -2.984375 38.296875 -12.003906 C 38.296875 -20.050781 32.332031 -24.214844 21.367188 -32.957031 C 13.527344 -39.0625 8.878906 -41.699219 8.878906 -47.734375 C 8.878906 -52.730469 12.628906 -56.058594 18.871094 -56.058594 C 27.683594 -56.058594 31.359375 -49.398438 32.191406 -43.15625 L 36.214844 -44.402344 C 32.261719 -52.453125 26.78125 -56.890625 19.011719 -56.890625 C 11.449219 -56.890625 6.382812 -53.074219 6.382812 -46.414062 C 6.382812 -39.894531 10.335938 -37.117188 19.425781 -29.902344 C 29.347656 -21.992188 35.800781 -17.621094 35.800781 -11.101562 C 35.800781 -3.121094 30.457031 0.554688 23.726562 0.554688 C 14.640625 0.554688 7.5625 -7.144531 6.800781 -18.386719 Z M 2.773438 -16.859375 "/></g></g></g><g fill="#000000" fill-opacity="1"><g transform="translate(16.349491, 33.241795)"><g><path d="M 10.578125 0.15625 C 8.828125 0.15625 7.242188 -0.234375 5.828125 -1.015625 C 4.410156 -1.796875 3.300781 -2.863281 2.5 -4.21875 C 1.707031 -5.582031 1.3125 -7.113281 1.3125 -8.8125 C 1.3125 -10.507812 1.707031 -12.035156 2.5 -13.390625 C 3.300781 -14.753906 4.410156 -15.820312 5.828125 -16.59375 C 7.242188 -17.375 8.828125 -17.765625 10.578125 -17.765625 C 12.316406 -17.765625 13.882812 -17.378906 15.28125 -16.609375 C 16.6875 -15.835938 17.789062 -14.769531 18.59375 -13.40625 C 19.40625 -12.039062 19.8125 -10.507812 19.8125 -8.8125 C 19.8125 -7.113281 19.40625 -5.582031 18.59375 -4.21875 C 17.789062 -2.851562 16.6875 -1.78125 15.28125 -1 C 13.882812 -0.226562 12.316406 0.15625 10.578125 0.15625 Z M 10.578125 -1.515625 C 11.960938 -1.515625 13.21875 -1.828125 14.34375 -2.453125 C 15.46875 -3.078125 16.347656 -3.945312 16.984375 -5.0625 C 17.628906 -6.1875 17.953125 -7.4375 17.953125 -8.8125 C 17.953125 -10.1875 17.628906 -11.429688 16.984375 -12.546875 C 16.347656 -13.660156 15.46875 -14.53125 14.34375 -15.15625 C 13.21875 -15.789062 11.960938 -16.109375 10.578125 -16.109375 C 9.179688 -16.109375 7.914062 -15.789062 6.78125 -15.15625 C 5.644531 -14.53125 4.753906 -13.660156 4.109375 -12.546875 C 3.460938 -11.429688 3.140625 -10.1875 3.140625 -8.8125 C 3.140625 -7.4375 3.460938 -6.1875 4.109375 -5.0625 C 4.753906 -3.945312 5.644531 -3.078125 6.78125 -2.453125 C 7.914062 -1.828125 9.179688 -1.515625 10.578125 -1.515625 Z M 10.578125 -1.515625 "/></g></g></g><g fill="#000000" fill-opacity="1"><g transform="translate(57.595375, 33.241795)"><g><path d="M 27.0625 -17.625 L 21.125 0 L 19.15625 0 L 14 -15.03125 L 8.8125 0 L 6.875 0 L 0.9375 -17.625 L 2.84375 -17.625 L 7.921875 -2.46875 L 13.1875 -17.625 L 14.921875 -17.625 L 20.109375 -2.390625 L 25.265625 -17.625 Z M 27.0625 -17.625 "/></g></g></g><g fill="#000000" fill-opacity="1"><g transform="translate(105.684825, 33.241795)"><g><path d="M 15.328125 -1.609375 L 15.328125 0 L 2.875 0 L 2.875 -17.625 L 14.953125 -17.625 L 14.953125 -16.015625 L 4.734375 -16.015625 L 4.734375 -9.734375 L 13.84375 -9.734375 L 13.84375 -8.15625 L 4.734375 -8.15625 L 4.734375 -1.609375 Z M 15.328125 -1.609375 "/></g></g></g><g fill="#000000" fill-opacity="1"><g transform="translate(142.653462, 33.241795)"><g><path d="M 17.59375 -17.625 L 17.59375 0 L 16.0625 0 L 4.734375 -14.296875 L 4.734375 0 L 2.875 0 L 2.875 -17.625 L 4.40625 -17.625 L 15.75 -3.328125 L 15.75 -17.625 Z M 17.59375 -17.625 "/></g></g></g><g fill="#000000" fill-opacity="1"><g transform="translate(183.245173, 33.241795)"><g><path d="M 7.734375 0.15625 C 6.421875 0.15625 5.164062 -0.0507812 3.96875 -0.46875 C 2.769531 -0.894531 1.84375 -1.453125 1.1875 -2.140625 L 1.90625 -3.578125 C 2.550781 -2.941406 3.398438 -2.425781 4.453125 -2.03125 C 5.515625 -1.632812 6.609375 -1.4375 7.734375 -1.4375 C 9.304688 -1.4375 10.484375 -1.722656 11.265625 -2.296875 C 12.054688 -2.878906 12.453125 -3.632812 12.453125 -4.5625 C 12.453125 -5.257812 12.238281 -5.816406 11.8125 -6.234375 C 11.382812 -6.660156 10.859375 -6.984375 10.234375 -7.203125 C 9.617188 -7.429688 8.757812 -7.679688 7.65625 -7.953125 C 6.320312 -8.285156 5.257812 -8.609375 4.46875 -8.921875 C 3.6875 -9.234375 3.015625 -9.707031 2.453125 -10.34375 C 1.890625 -10.976562 1.609375 -11.84375 1.609375 -12.9375 C 1.609375 -13.820312 1.84375 -14.628906 2.3125 -15.359375 C 2.78125 -16.097656 3.5 -16.679688 4.46875 -17.109375 C 5.445312 -17.546875 6.660156 -17.765625 8.109375 -17.765625 C 9.109375 -17.765625 10.09375 -17.625 11.0625 -17.34375 C 12.03125 -17.070312 12.863281 -16.691406 13.5625 -16.203125 L 12.9375 -14.71875 C 12.195312 -15.207031 11.40625 -15.570312 10.5625 -15.8125 C 9.726562 -16.0625 8.910156 -16.1875 8.109375 -16.1875 C 6.566406 -16.1875 5.40625 -15.882812 4.625 -15.28125 C 3.84375 -14.6875 3.453125 -13.921875 3.453125 -12.984375 C 3.453125 -12.285156 3.664062 -11.71875 4.09375 -11.28125 C 4.519531 -10.851562 5.054688 -10.523438 5.703125 -10.296875 C 6.347656 -10.078125 7.21875 -9.832031 8.3125 -9.5625 C 9.601562 -9.25 10.644531 -8.9375 11.4375 -8.625 C 12.238281 -8.3125 12.914062 -7.835938 13.46875 -7.203125 C 14.019531 -6.578125 14.296875 -5.726562 14.296875 -4.65625 C 14.296875 -3.769531 14.054688 -2.957031 13.578125 -2.21875 C 13.097656 -1.488281 12.363281 -0.910156 11.375 -0.484375 C 10.382812 -0.0546875 9.171875 0.15625 7.734375 0.15625 Z M 7.734375 0.15625 "/></g></g></g><g fill="#000000" fill-opacity="1"><g transform="translate(218.855179, 33.241795)"><g><path d="M 13.96875 -9.09375 C 15.125 -8.832031 16.015625 -8.328125 16.640625 -7.578125 C 17.273438 -6.835938 17.59375 -5.878906 17.59375 -4.703125 C 17.59375 -3.191406 17.035156 -2.03125 15.921875 -1.21875 C 14.804688 -0.40625 13.15625 0 10.96875 0 L 2.875 0 L 2.875 -17.625 L 10.46875 -17.625 C 12.4375 -17.625 13.957031 -17.226562 15.03125 -16.4375 C 16.113281 -15.644531 16.65625 -14.53125 16.65625 -13.09375 C 16.65625 -12.113281 16.414062 -11.285156 15.9375 -10.609375 C 15.46875 -9.929688 14.8125 -9.425781 13.96875 -9.09375 Z M 4.734375 -16.078125 L 4.734375 -9.6875 L 10.34375 -9.6875 C 11.769531 -9.6875 12.867188 -9.957031 13.640625 -10.5 C 14.410156 -11.050781 14.796875 -11.847656 14.796875 -12.890625 C 14.796875 -13.929688 14.410156 -14.722656 13.640625 -15.265625 C 12.867188 -15.804688 11.769531 -16.078125 10.34375 -16.078125 Z M 10.953125 -1.53125 C 12.523438 -1.53125 13.710938 -1.796875 14.515625 -2.328125 C 15.328125 -2.867188 15.734375 -3.710938 15.734375 -4.859375 C 15.734375 -7.054688 14.140625 -8.15625 10.953125 -8.15625 L 4.734375 -8.15625 L 4.734375 -1.53125 Z M 10.953125 -1.53125 "/></g></g></g><g fill="#000000" fill-opacity="1"><g transform="translate(257.962454, 33.241795)"><g><path d="M 10.578125 0.15625 C 8.828125 0.15625 7.242188 -0.234375 5.828125 -1.015625 C 4.410156 -1.796875 3.300781 -2.863281 2.5 -4.21875 C 1.707031 -5.582031 1.3125 -7.113281 1.3125 -8.8125 C 1.3125 -10.507812 1.707031 -12.035156 2.5 -13.390625 C 3.300781 -14.753906 4.410156 -15.820312 5.828125 -16.59375 C 7.242188 -17.375 8.828125 -17.765625 10.578125 -17.765625 C 12.316406 -17.765625 13.882812 -17.378906 15.28125 -16.609375 C 16.6875 -15.835938 17.789062 -14.769531 18.59375 -13.40625 C 19.40625 -12.039062 19.8125 -10.507812 19.8125 -8.8125 C 19.8125 -7.113281 19.40625 -5.582031 18.59375 -4.21875 C 17.789062 -2.851562 16.6875 -1.78125 15.28125 -1 C 13.882812 -0.226562 12.316406 0.15625 10.578125 0.15625 Z M 10.578125 -1.515625 C 11.960938 -1.515625 13.21875 -1.828125 14.34375 -2.453125 C 15.46875 -3.078125 16.347656 -3.945312 16.984375 -5.0625 C 17.628906 -6.1875 17.953125 -7.4375 17.953125 -8.8125 C 17.953125 -10.1875 17.628906 -11.429688 16.984375 -12.546875 C 16.347656 -13.660156 15.46875 -14.53125 14.34375 -15.15625 C 13.21875 -15.789062 11.960938 -16.109375 10.578125 -16.109375 C 9.179688 -16.109375 7.914062 -15.789062 6.78125 -15.15625 C 5.644531 -14.53125 4.753906 -13.660156 4.109375 -12.546875 C 3.460938 -11.429688 3.140625 -10.1875 3.140625 -8.8125 C 3.140625 -7.4375 3.460938 -6.1875 4.109375 -5.0625 C 4.753906 -3.945312 5.644531 -3.078125 6.78125 -2.453125 C 7.914062 -1.828125 9.179688 -1.515625 10.578125 -1.515625 Z M 10.578125 -1.515625 "/></g></g></g><g fill="#000000" fill-opacity="1"><g transform="translate(299.208332, 33.241795)"><g><path d="M 14.90625 0 L 10.875 -5.65625 C 10.414062 -5.613281 9.945312 -5.59375 9.46875 -5.59375 L 4.734375 -5.59375 L 4.734375 0 L 2.875 0 L 2.875 -17.625 L 9.46875 -17.625 C 11.71875 -17.625 13.476562 -17.082031 14.75 -16 C 16.019531 -14.925781 16.65625 -13.453125 16.65625 -11.578125 C 16.65625 -10.203125 16.304688 -9.039062 15.609375 -8.09375 C 14.921875 -7.144531 13.929688 -6.460938 12.640625 -6.046875 L 16.9375 0 Z M 9.421875 -7.171875 C 11.160156 -7.171875 12.488281 -7.554688 13.40625 -8.328125 C 14.332031 -9.097656 14.796875 -10.179688 14.796875 -11.578125 C 14.796875 -13.003906 14.332031 -14.097656 13.40625 -14.859375 C 12.488281 -15.628906 11.160156 -16.015625 9.421875 -16.015625 L 4.734375 -16.015625 L 4.734375 -7.171875 Z M 9.421875 -7.171875 "/></g></g></g><g fill="#000000" fill-opacity="1"><g transform="translate(337.535623, 33.241795)"><g><path d="M 10.578125 0.15625 C 8.828125 0.15625 7.242188 -0.234375 5.828125 -1.015625 C 4.410156 -1.796875 3.300781 -2.863281 2.5 -4.21875 C 1.707031 -5.582031 1.3125 -7.113281 1.3125 -8.8125 C 1.3125 -10.507812 1.707031 -12.035156 2.5 -13.390625 C 3.300781 -14.753906 4.410156 -15.820312 5.828125 -16.59375 C 7.242188 -17.375 8.828125 -17.765625 10.578125 -17.765625 C 12.316406 -17.765625 13.882812 -17.378906 15.28125 -16.609375 C 16.6875 -15.835938 17.789062 -14.769531 18.59375 -13.40625 C 19.40625 -12.039062 19.8125 -10.507812 19.8125 -8.8125 C 19.8125 -7.113281 19.40625 -5.582031 18.59375 -4.21875 C 17.789062 -2.851562 16.6875 -1.78125 15.28125 -1 C 13.882812 -0.226562 12.316406 0.15625 10.578125 0.15625 Z M 10.578125 -1.515625 C 11.960938 -1.515625 13.21875 -1.828125 14.34375 -2.453125 C 15.46875 -3.078125 16.347656 -3.945312 16.984375 -5.0625 C 17.628906 -6.1875 17.953125 -7.4375 17.953125 -8.8125 C 17.953125 -10.1875 17.628906 -11.429688 16.984375 -12.546875 C 16.347656 -13.660156 15.46875 -14.53125 14.34375 -15.15625 C 13.21875 -15.789062 11.960938 -16.109375 10.578125 -16.109375 C 9.179688 -16.109375 7.914062 -15.789062 6.78125 -15.15625 C 5.644531 -14.53125 4.753906 -13.660156 4.109375 -12.546875 C 3.460938 -11.429688 3.140625 -10.1875 3.140625 -8.8125 C 3.140625 -7.4375 3.460938 -6.1875 4.109375 -5.0625 C 4.753906 -3.945312 5.644531 -3.078125 6.78125 -2.453125 C 7.914062 -1.828125 9.179688 -1.515625 10.578125 -1.515625 Z M 10.578125 -1.515625 "/></g></g></g></svg>